<svg id="レイヤー_1" data-name="レイヤー 1" xmlns="http://www.w3.org/2000/svg" viewBox="0 0 1161 545.12" style=""><defs><style>.cls-1,.cls-2,.cls-3,.cls-4,.cls-5,.cls-6,.cls-7,.cls-8,.cls-9{fill:none;stroke-linecap:round;}.cls-1{stroke:#ffe3f1;stroke-width:7px;opacity:0.66;}.cls-1,.cls-2,.cls-7,.cls-8,.cls-9{stroke-miterlimit:10;}.cls-2,.cls-7{stroke:#d3316c;}.cls-2,.cls-8,.cls-9{stroke-width:2px;}.cls-3,.cls-5,.cls-9{stroke:#b22828;}.cls-3,.cls-4{stroke-miterlimit:10;stroke-width:2px;}.cls-4,.cls-6,.cls-8{stroke:#f47d7d;}.cls-5,.cls-6{stroke-miterlimit:10;stroke-width:2px;}</style></defs><title>baton_ai1</title><path class="cls-1 sEtrrwuc_0" d="M758.3,225.65c14.2-7.92,26.39-32.21,37.66-45,13.63-15.49,28.48-30,45.44-41.83,9.49-6.62,19.83-12.47,31.21-14.53,14.87-2.7,30.38,1.38,43.57,8.77,34.67,19.4,53.53,60.46,53.82,100.19s-15.6,78-36.81,111.64A363.6,363.6,0,0,1,813,462.25c-5.06,3-10.35,6-16.19,6.78-7.65,1-15.25-1.77-22.4-4.7A455.82,455.82,0,0,1,608.13,346.71C578,313,551.9,271.06,554.57,225.9c1.35-22.83,10.15-44.88,23.26-63.62,8.48-12.12,19.24-23.3,33-28.65,18.61-7.21,39.77-2.73,58.13,5.09C711.26,156.72,734.85,188.2,758.3,225.65Z"></path><path class="cls-1 sEtrrwuc_1" d="M864.35,118.19c15.93-8.88,29.61-36.14,42.26-50.52,15.28-17.38,31.95-33.65,51-46.93,10.64-7.43,22.24-14,35-16.3,16.69-3,34.09,1.55,48.89,9.83,38.89,21.77,60,67.84,60.38,112.42s-17.5,87.57-41.3,125.26a408.16,408.16,0,0,1-134.9,131.7c-5.68,3.4-11.62,6.72-18.17,7.6-8.58,1.16-17.11-2-25.12-5.27A511.34,511.34,0,0,1,695.87,254c-33.81-37.86-63.09-84.88-60.09-135.55,1.51-25.61,11.39-50.35,26.09-71.37C671.39,33.5,683.46,21,698.94,15c20.87-8.09,44.62-3.06,65.21,5.71C811.57,40.86,838.05,76.17,864.35,118.19Z"></path><path class="cls-1 sEtrrwuc_2" d="M315.51,194.68c13.86-11.7,25.6-25.66,38.57-38.33S381.7,132,399,126.53s37.64-3.93,51.55,7.7c15.4,12.88,19.8,34.78,19.45,54.85-1.72,97.71-88.92,143.94-159.57,193-23-17.52-48-32.1-71.64-48.72s-46.17-35.66-61.88-59.9-24-54.37-17.45-82.51c3.61-15.47,11.48-29.66,20.91-42.44,15.07-20.41,33.5-30.21,58.85-21A140.88,140.88,0,0,1,315.51,194.68Z"></path><path class="cls-2 sEtrrwuc_3" d="M1,270.82l44.06-4.38,23.46-2.33c7.3-.73,14.63-1.58,22-1.7,3.57-.07,10.42.44,10.42-4.78,0-6.62-1.2-26.77-1.2-26.81,0-.52,7.67-.84,8.25-.81,2.5.12,4.81.69,5.94,3.1.68,1.47,1.36,5,.54,6.46-1.81,3.3-10.42,3.13-13.43,3.54,17-1.13,16.2,7.3,16.2,7.3s1.7,9.47-15.35,8.62c17.48,3.41,24.44-2.7,25.86-4.69"></path><path class="cls-2 sEtrrwuc_4" d="M154.44,252.47s-8.7,5.38-15.5,6-11.46-1.29-11.89-8.81,1.72-12.68,9.38-12.83,9,8.46,7.6,9.46-16.31.55-16.31.55"></path><path class="cls-2 sEtrrwuc_5" d="M171.93,237.58c-4.28-3.2-10.68-4.29-15.16-.84-3.76,2.89-5.86,8.6-4,13.12,2,4.83,8.91,5.67,13.42,5.5a26.19,26.19,0,0,0,15.21-5.93"></path><path class="cls-2 sEtrrwuc_6" d="M196.75,242.55s-16-.79-15.34,6.88c.21,2.48,1.48,4.6,4.07,5,4.62.75,8.64-3.15,10.19-7.16a7.88,7.88,0,0,0,.4-1.36c.68-3.38,2.71-10.26-3.5-12.18s-12.29,3-12.29,3"></path><path class="cls-2 sEtrrwuc_7" d="M195.62,249.2c1.28,3.82,5.33,4.14,8.75,3.47,2.43-.48,6.18-2.55,6.72-5.15a27.74,27.74,0,0,0,0-5.69c0-3-.2-6.05-.44-9.07,0-.45-.12-4.14.85-3.39.54.42.58,1.78.66,2.39a48.11,48.11,0,0,1,.23,5.1c0,2.26.05,4.53.16,6.79a12,12,0,0,0,.61,4.39c1.08,2.25,3.16,2.25,5.92,2.25s6.48-.57,7-2.64c.62-2.49.18-5.54.12-8.08-.06-2.71-.13-5.43-.31-8.13-.07-1.1-.52-4,1.27-4,1.55,0,1.9.82,1.9,2.68v17.23s-.22,3.11,2.72,1.17a45,45,0,0,0,6.41-5.7c4.49-4.45,8.74-8.94,8.75-15.72a3,3,0,0,0-4.67-2.64,3.32,3.32,0,0,0-1,4.15c.65,1.37,2.41,2.36,3.63,3.15,3.45,2.24,16.8,7.73,9.89,13.55-2.91,2.45-7.77,2.6-11.37,2.4-2.92-.16-5.83-.5-8.72-.92"></path><path class="cls-2 sEtrrwuc_8" d="M233.47,247.22s26,7.63,34.84-3.72a11.73,11.73,0,0,1-.81-1.43c-2.85-6-1.36-15,6.35-15.19a8,8,0,0,1,7.25,3.85,10.43,10.43,0,0,1,1.45,4.19c0,.78-.14.71-.86.75s-1.24,0-1.85,0H267"></path><path class="cls-2 sEtrrwuc_9" d="M267.83,242.71a2.25,2.25,0,0,0,.77,1.15,7,7,0,0,0,.64.57,7.5,7.5,0,0,0,.88.59,17.49,17.49,0,0,0,6.79,2c8.13,1,16.57-.27,24.69-.88q9.91-.75,19.82-1.61l3.75-.34s6.67.27,6.49-4.91c-.26-7.62-1-15.37-.86-23,0-1,.13-3.51,1.41-3.8,2.39-.56,2.48,4.05,2.5,5.32.05,4.07.38,21.58.38,21.58s-.22,4.12,3.41,3.74,38.11-1.3,38.11-1.3,6.94-.11,9.27-5.59c2.95-6.92,4-14.82,1.73-22.08-.29-.92-.89-3.13-1.87-3.54s-1.5,1.48-1.75,2.26c-3.62,11.58-2.1,27.42,13.16,27.87,3,.09,7.71-1.11,10.06-3.18"></path><path class="cls-2 sEtrrwuc_10" d="M414.27,219.9a10.3,10.3,0,0,0-9,6.79,10.89,10.89,0,0,0,6.07,13.38,8.85,8.85,0,0,0,11.7-4.91,11.56,11.56,0,0,0,.42-7.84,9.84,9.84,0,0,0-3.45-5.65A9.16,9.16,0,0,0,414.27,219.9Z"></path><path class="cls-2 sEtrrwuc_11" d="M415.11,220.32c1,5.19,5,9.71,10.53,9.72,1.8,0,4.36-.37,5.55-2,1.91-2.63-1.08-5.58.16-8.33,1.42-3.16,3.88,1.22,4.38,2.62,1.61,4.47,2.09,9.45,3.32,14.12,1,3.66,2.52,7,4.58,1.8.83-2.09,1.49-4.24,2.18-6.38.77-2.42,3.42-15.21,7.39-14.22,1.21.31,1.35,2.1,1.38,3.11.11,3-.8,5.85-.85,8.79-.1,6,3.75,8.73,9.27,8.26"></path><path class="cls-2 sEtrrwuc_12" d="M458.62,228.39l14.09.23s3.34.43,3.08-2a7.93,7.93,0,0,0-8.23-7.38c-6.37-.11-9.5,5.84-8.94,11.25,1.09,10.62,14.86,9.74,22.52,9.82,8.22.09,16.43.09,24.65.06h1.42s3.13.06,3-2.65,0-5.32,0-8-.19-5-.27-7.56c-.05-1.37,0-3.67,1.87-3.67,2.12,0,2,3.05,2,4.11s-.4,15.16-.4,15.16a3.6,3.6,0,0,0,3,3.62,83.3,83.3,0,0,0,10.34.58s2.88-.76,2.92-2.74.31-17.15.31-17.15-.35-2.83,1.46-2.79,1.59,1.86,1.63,2.74-.57,35-.57,35,0,2.83-2.21,2.7S528,258,528,256.93s0-10.38,0-10.38a2.18,2.18,0,0,1,2.39-2.48c2.65.09,6.27.09,6.27.09s5.17-.57,6.9-3.53"></path><path class="cls-2 sEtrrwuc_13" d="M549.58,220.8a8.72,8.72,0,0,0-5.27,3c-2.86,3.16-4.39,8.45-2.36,13a9.84,9.84,0,0,0,4,4.59c3.82,2.15,8.93,1.39,11.47-2.32,3.67-5.36,3.93-13-2.12-16.81A8.52,8.52,0,0,0,549.58,220.8Z"></path><path class="cls-2 sEtrrwuc_14" d="M550.64,221s-.42,8.45,8.27,8.39,10-.73,10-.73"></path><path class="cls-2 sEtrrwuc_15" d="M568.93,218.86v17.86c0,4,4.45,5,7.66,5,1.67,0,3.89.27,5.31-.82,1.2-.92,1.09-2.93,1.18-4.31.26-3.89.28-7.79.28-11.69,0-1.15,0-2.3,0-3.46,0,0-.18-3,1.63-2.92s1.75,2,1.75,3.1c0,2.63-.09,5.25-.14,7.87s-.28,5.19-.3,7.78c0,1.22.12,2.72,1.27,3.38a7.78,7.78,0,0,0,3.49.51c2.82.14,5.64.43,8.45.64q11.68.87,23.36,1.67c6.08.4,12.18.89,18.27,1h.1c14.94.17,29.87.46,44.8.28,9.3-.11,18.9.26,28.24-1a58.72,58.72,0,0,0,14-3.44c2.75-1.08,7.42-2.48,7.53-6.08.16-4.74-4.28-7.21-7.62-9.63-11.22-8.13-22.84-18.9-25.82-33.2-3.37-16.17-3.73-32.16,7.38-45.49,6.56-7.87,17.89-12.33,27.77-13.94,9.4-1.53,19-1,28.43,0,10.56,1.11,33.25,5,33,7s-20.87,4.56-20.65,6.54,23.61,2,23.61,4.17c0,1.78-7,2.41-8.1,2.62-1.94.37-3.9.7-5.8,1.25-4.48,1.31-7.29,6.83-7.4,11.23s3.62,7.19,7.91,10.43c2.68,2,5.72,4.5,7.33,7.52.77,1.44,1,3-.48,4.05s-3.29.61-4.9.9a8.65,8.65,0,0,0-3.89,2c-2.38,2-3,4.74-3.17,7.72-3.35.16-12.9.33-12.9.33s-3.57.16-.6,1.76c2.57,1.38,5.24,2.6,7.91,3.8,1.22.55,7,2.17,6.34,4.13a38.8,38.8,0,0,1-5.85,11.85,17.38,17.38,0,0,1-7.62,5.94c-2.44.89-7-.4-8.69,2.07-4.5,6.57,6.5,14.31,11,17.48,5.56,3.94,12.47,2.88,19,2.88,10.2,0,20.41-.07,30.62-.27,8.42-.16,17.12.63,24.44-4.26,4.39-2.93,12.78-8,10.25-14.34-.74-1.86-9.78-3.73-11.46-5.22s-4.94-3.26-4.94-5.78.65-2.6,3-4.1,18-11.18,18-11.18,1.58-1.3,0-1.49-21.06.19-21.06.19-4.1.28-2.24-1.87,2.33-5.12,0-6.06-4.56-3.07-11.74-2.05c1.4-3,11.37-15.84,14.26-17.33-.19-2.33-.47-11.17-.47-11.18s-1.6-1-1.74-1.1a10.61,10.61,0,0,1-3.18-4.2c-2.55-6-.3-14.53,4.41-18.84,6.47-5.93,15.1-8.12,23.62-8.88,10.73-1,22.53-2.54,32.87,1.46,8.61,3.33,17.5,10.58,22,18.69,6.48-9.07,20.23-10.94,30.51-9.81,10.75,1.17,22.64,4.9,29.26,14,0,0,2.25,2-1.74,1.13-9.5-2.19-19.6-1.65-29.07.42a73.76,73.76,0,0,0-13.8,4.12c-3.75,1.64-9.44,4-10.29,8.45-.92,4.87-1.25,9.68-2.69,14.54-2.55,8.65-5,17.68-10.81,24.83-6,7.43-15.36,11.1-22.06,17.83-4.05,4.08-12.46,17.67-3.8,21.38,5.28,2.26,13.5,1.23,19.09,1.41,42.81,1.34,85.49,6.51,128.09,10.85,41.88,4.27,83.4,13.11,124.89,21.39l4,.8"></path><path class="cls-2 sEtrrwuc_16" d="M834.64,165.83s0,4.1,5.22,3.11"></path><path id="パス_117" data-name="パス 117" class="cls-3 sEtrrwuc_17" d="M337.88,123.1c4,.35,7.45.73,11.42-.12,12.87-2.77,23.51-10.72,34.18-18,11.09-7.53,23.16-13.41,34.35-20.78s27-16.44,28.91-31.13c3.22-25-27.08-31.14-45.69-25.58-26.69,8-23.5,37.72-16,59.1,6.56,18.67,22.19,35.27,32.32,52.27"></path><path id="パス_118" data-name="パス 118" class="cls-4 sEtrrwuc_18" d="M341.25,127.2c4,.35,7.45.73,11.42-.12,12.87-2.77,23.51-10.72,34.18-18,11.09-7.53,23.16-13.41,34.35-20.78s27-16.44,28.91-31.13c3.22-25-27.08-31.14-45.68-25.58-26.69,8-23.5,37.72-16,59.1C395,109.4,410.62,126,420.76,143"></path><path id="パス_119" data-name="パス 119" class="cls-4 sEtrrwuc_19" d="M345.62,130c4,.35,7.44.74,11.42-.12,12.87-2.77,23.51-10.71,34.18-18,11.09-7.53,23.16-13.41,34.34-20.78s27-16.43,28.92-31.12c3.21-25-27.08-31.15-45.69-25.59-26.69,8-23.5,37.73-16,59.11,6.55,18.66,22.19,35.27,32.32,52.26"></path><path id="パス_120" data-name="パス 120" class="cls-3 sEtrrwuc_20" d="M333.51,120.25c4,.35,7.45.73,11.42-.12,12.87-2.77,23.51-10.72,34.18-18,11.09-7.53,23.16-13.41,34.35-20.78s27-16.43,28.92-31.12c3.21-25-27.08-31.14-45.69-25.59-26.69,8-23.5,37.72-16,59.1,6.56,18.67,22.19,35.27,32.33,52.27"></path><path class="cls-2 sEtrrwuc_21" d="M499.85,42.46s4.2-5.05,4.5,2.77c.28,7-.26,14.23-.1,21.33.09,3.72.35,9.51-4.92,9.14s-57.84.66-57.84.66S355,77.9,348.55,78.73"></path><path class="cls-2 sEtrrwuc_22" d="M525.33,42.39c-4.07,2.76-18.13,16.77-18.13,16.77a6.1,6.1,0,0,1-2.94,2.11,3,3,0,0,1-3.91-2.22c-.13-1.12.33-2.31,3-2.27s3.28.06,5.61,3.37a57.72,57.72,0,0,0,6.94,7.72c3,2.89,6.41,6.3,10.42,7.66,2.55.86,4.82-.29,5.08-3,.37-3.85,0-7.88,0-11.75,0-2,.05-4,.14-6.07.05-1-.31-4.47,1.08-4.85s1.47,11.41,1.49,12.67q.06,3.47.09,6.93c0,1.69-.1,3.38,1.14,4.69,2.06,2.16,5.35,2.21,8.11,1.92,4.41-.47,4.81-4.38,4.77-7.93a145,145,0,0,1,.14-14.89c.31-3.43,4-5,4.33-.55a118.4,118.4,0,0,1,0,12.21c-.06,2.11-.12,4.22-.2,6.32-.1,2.66-.42,4.76,2.85,5.28a10.23,10.23,0,0,0,9.83-4.63c2.05-3.12,2.05-6.54,2.42-10.13.42-4.07.64-8.15.8-12.24a145.68,145.68,0,0,0,3,20.58,23.57,23.57,0,0,0,1.73,5.31c1.32,2.54,6.38,1.94,8.66,1.13,5.7-5.91,12.16-13.09,14.79-21,.56-1.67,1.12-5.37-1.33-6-1.1-.3-2.26.7-2.78,1.59s-1.11,4,4.66,6.62,12.4,6.6,13.37,11.23c.75,3.6-2,5.94-5.22,6.77-4.24,1.1-9.07-.36-13.11-1.63a19.35,19.35,0,0,1-4-1.82c-.91-.54-1.6-1.38-2.5-1.92-1.52-.91-1.91.33-1.37,1.74a5.56,5.56,0,0,0,1.48,2,17.2,17.2,0,0,0,5.64,3.22c6,2.35,12.31,2.77,18.74,3s13,.32,19.45-.1a86.72,86.72,0,0,0,8.8-1c2-.35,4.74-.86,5.89-2.79a2.15,2.15,0,0,0,.32-1c.26-7,.49-31.09.49-31.11,0-.24,4.77-.44,5.08-.45,3-.08,6.33.09,9.1,1.42C663,47,663.71,51.37,662.77,55c-.65,2.52-2.56,3.72-5,4.15-3.89.68-8,.22-11.93,0,6.45,0,15.39,1.32,18.32,8.09,3.83,8.83-8.83,10.61-14.66,9.83-1-.13-1.93-.3-2.89-.49a50.87,50.87,0,0,0,27.56,1.66,7.89,7.89,0,0,0,2.47-.86c1.25-.82-.33-1.24-.91-2.13-1.4-2.16-.28-5.25,1.82-6.52,2.4-1.45,10.61-2.36,13.14-2.32a36.3,36.3,0,0,0,.49,7.51c.38,2,1.05,4.09,3,5,2.8,1.25,6.57,1.75,9.4.37a8.39,8.39,0,0,0,3.32-3.07c2.26-3.54,3-8.22,3.6-12.29.42-2.57.7-5.16.91-7.75s0-5.29.45-7.81c.61-3.62,4-3.75,4.56,0,1,7.61.69,15.18,3,22.61,1.85,5.85,5.16,11,11.76,11.22"></path><path class="cls-2 sEtrrwuc_23" d="M699.42,55.65L731.6,57.15"></path><path class="cls-2 sEtrrwuc_24" d="M677.91,76.88s9.5,5.35,12.66-4.79"></path><path class="cls-2 sEtrrwuc_25" d="M676.39,58.68s14.74-9.56,14.26,8.22"></path><path class="cls-2 sEtrrwuc_26" d="M738.18,60.23s2,11.6,10,12.15c1.92.13,4.22.39,6.09-.27,2.3-.8,3-3.28,3-5.48.08-1.75-.7-5,1.18-6.1,2.13-1.23,2.38-.56,2.47,2.21.12,3.74-.06,7.52-.13,11.27q-.06,3.33-.13,6.66c0,1.08-.42,2.85.33,3.77a1.79,1.79,0,0,0,2.75-.12c1-1.36.6-3.31.57-4.87,0-2.22-.08-4.44,0-6.66.22-5.39-.86-12.25,4.43-13.62a8.86,8.86,0,0,1,7.87,1.7c2.41,2.05,2.7,4.75,2.8,7.71.16,4.79-.08,9.61-.37,14.39-.22,3.43,2.58,3.61,5.14,3.76,2,.11,4,.25,6,.39,5.72.41,11.6,1,17.37,1.51,2.72.26,11.15,2,11.23-2.81.06-4-.4-33.23-.4-33.25,0-.41,7.51.28,8.18.34,3.84.34,8.75,1.22,10.95,4.77,2.57,4.16-.08,11.55-4.77,12.91a15.73,15.73,0,0,1-5.92.34c-1-.1-2-.3-3.05-.48-.73-.12-1.82-.59-2.56-.33s-.45,1.4-.4,1.9c.16,1.54.16,3.09.19,4.64,0,2.29.06,4.57.18,6.86a10.75,10.75,0,0,0,.26,2.59c1,3.3,4.85,3.9,7.83,3.86,5.14-.07,9.28-1.27,13.07-4.9,3.09-2.95,7-6,8.12-10.37.9-3.57.87-7.67-3.45-8.5s-2.16,3.25-1.64,3.92a11.58,11.58,0,0,0,6.4,4,12.73,12.73,0,0,0,3.84.37,10.64,10.64,0,0,0,1.87-.25c.57-.13,1.08-.4,1.65-.52a.15.15,0,0,1,.13,0s.05.08.06.13c.57,3.08.88,6.2,1.37,9.29a24.82,24.82,0,0,0,1.54,6.4,6,6,0,0,0,5.18,3.72c2.43.31,6,.11,7.93-1.71"></path><path class="cls-2 sEtrrwuc_27" d="M738.18,60.23c-4.9.21-9.1,6.13-9.51,11.68-.3,3.92,1.12,9.82,6,11.92a10.1,10.1,0,0,0,8.18-.37c5.44-2.89,5.35-10,5.34-11.08,0-.87-.19-7.32-5.17-10.58A8.08,8.08,0,0,0,738.18,60.23Z"></path><path class="cls-2 sEtrrwuc_28" d="M880.65,70.29a5.59,5.59,0,0,0-1.22.16,7.36,7.36,0,0,0-3.63,2.35,13.46,13.46,0,0,0-1.6,16.33,10.2,10.2,0,0,0,4.9,4.09A9.37,9.37,0,0,0,888.68,91a11.31,11.31,0,0,0,3-9.56,14.27,14.27,0,0,0-5.15-8.76A9.23,9.23,0,0,0,880.65,70.29Z"></path><path class="cls-2 sEtrrwuc_29" d="M882.12,71s-1.88,7.77,8.85,7.45c6-.18,13-1.31,17.91-5.12a7.91,7.91,0,0,0,1.88-2.07c.41-.66.67-1.65,1.43-2,1.73-.81,1.46,3.22,1.45,4.14,0,1.93,0,3.86-.08,5.79q-.1,6.93-.25,13.85c0,2.57.58,6-.91,8.23-1.25,1.91-3.65,2.13-5.73,1.82a6.94,6.94,0,0,1-6.25-7.46c.08-1.46,1.82-1.41,2.88-1.26,2,.26,3.83.83,5.8,1a56.89,56.89,0,0,0,6.53-.07,66.36,66.36,0,0,0,8-.75c2.1-.36,5.75-.5,7-2.62"></path><path class="cls-2 sEtrrwuc_30" d="M930.74,84l4.41.7,8.2,1.29,2.52.43c.42.07.84.14,1.26.19s.63.14.75-.39a10.39,10.39,0,0,0-.2-4.4,7.67,7.67,0,0,0-4.81-5.59,9.31,9.31,0,0,0-1.64-.47,9.11,9.11,0,0,0-7.38,1.59,8.89,8.89,0,0,0-2,2.16,10.34,10.34,0,0,0-1.27,2.84l-.09.39c-.89,3.8-.4,10.11,2.55,13,3.1,3,8.54,2.34,12.49,2.13a55.17,55.17,0,0,0,6.8-.7c2-.38,3.92-1.28,5.91-1.83l.29-.08a.28.28,0,0,0-.14.23.94.94,0,0,0,.07.4,6.49,6.49,0,0,0,.84,1.35,9.09,9.09,0,0,0,3.07,2.91,14.91,14.91,0,0,0,3,1.19,26.91,26.91,0,0,0,6.56.87c.71,0,1.42,0,2.12,0,4.52,0,9.28-.88,13-3.58,5.27-3.82,6.47-10,6.79-16.07.16-2.93.16-5.87.41-8.8.14-1.62.2-4.34,1.59-5.49a1.74,1.74,0,0,1,1.17-.44c3.78.06,3.06,9.05,3.19,11.32a48.12,48.12,0,0,0,4,16.12,24.9,24.9,0,0,0,6,9c3,2.62,7.06,3.15,10.86,3.5,15.66,1.45,31.22,3.76,46.82,5.74l19.88,2.52,21.71,2.77,8.37,1.07"></path><path class="cls-2 sEtrrwuc_31" d="M981.38,78.6L1014.39,82.5"></path><path class="cls-2 sEtrrwuc_32" d="M975.56,84s-2.71-5.48-11.68-4.74a6,6,0,0,0-4.49,2.46,10.55,10.55,0,0,0-1.7,4.93,22.83,22.83,0,0,0,0,5.29,23.53,23.53,0,0,0,.76,4"></path><path class="cls-2 sEtrrwuc_33" d="M568.44,41.6a2.33,2.33,0,1,0,.06,4.65,2.32,2.32,0,0,0,2-2.1A2.36,2.36,0,0,0,568.44,41.6Z"></path><path class="cls-2 sEtrrwuc_34" d="M913,60.91a2.33,2.33,0,1,0,.05,4.65,2.32,2.32,0,0,0,2-2.1A2.35,2.35,0,0,0,913,60.91Z"></path><g id="グループ_217" data-name="グループ 217"><path id="パス_121" data-name="パス 121" class="cls-5 sEtrrwuc_35" d="M401.31,94.34c3.86-2.58,7.92-5.52,12.95-7.43,9.08-4.85,17.17-9.71,24.29-16.59,9.16-8.84,12.44-24.79,3.12-35.23"></path><path id="パス_122" data-name="パス 122" class="cls-6 sEtrrwuc_36" d="M404.26,98.39C421,88.6,452.14,77.05,450.38,52.93a22.05,22.05,0,0,0-9.07-16.22"></path><path id="パス_123" data-name="パス 123" class="cls-6 sEtrrwuc_37" d="M406.7,102.49c16.84-10,53.59-24,47.76-49.54a24,24,0,0,0-13-15.81"></path><path id="パス_124" data-name="パス 124" class="cls-5 sEtrrwuc_38" d="M397.73,90.62c17-9.6,54.83-26.65,43.14-52.42"></path></g><path class="cls-2 sEtrrwuc_39" d="M46.34,404.38C105,398.5,163,393.5,222,389.5c2,0,4,1,6,1,3-1,7-1,7-5,1-10,2-19,5-28,6-12,11-27,24-32a3.49,3.49,0,0,1,1,2c-1,8-8,15-6,22,0,1,3-1,5-2,10-9,17-20,28-28,5-4,10-10,16-6v3c-9,12-19,20-29,31-1,2,1,1,2,1,11-10,21-19,32-29a18.54,18.54,0,0,1,7-2c2,0,4,3,3,5-10,13-24,19-35,30l1,1c10-5,18-11,27-17,5-2,9-6,14-7,3,0,6,5,3,7-14,9-28,15-42,23h4c4-1,7-3,11-4,7-2,14-9,21-6,1,1,0,2-1,3-20,12-40,17-60,28-1,0-2,1-1,2,6,4,13,2,19,2,39-3,78-5,117-8,3,0,4-5,3-5-19-10-41-7-61-14-1,0-5-1-4-5,1-1,3-1,5-1,8,3,15,3,23,5-1-1-1-2-2-2-12-5-25-8-38-12a7.81,7.81,0,0,1-4-4c0-2,2-4,5-4,14,3,27,7,40,10-12-7-27-10-40-15-3-1-8-5-4-8,17-1,31,11,47,14a3.67,3.67,0,0,0-1-3,164.94,164.94,0,0,1-36-16c-1-1-2-2-2-3,1-5,6-5,10-3a77.41,77.41,0,0,0,16,7c13,3,24,9,37,11,1,0,4-1,4-2,0-10-11-15-16-23-2-2-1-6,1-7s4,0,6,1c8,5,13,11,19,18,9,12,18,22,23,36,2,6,1,12-1,18,3,7,12,4,18,7,31-4,63-2,94.5-.88"></path><path class="cls-2 sEtrrwuc_40" d="M387.65,357.9c-3.55-2.75-.35-9.34.6-12.79.85-3.07,1.09-6.38,2.58-9.25.24-.47.46-.79,1-.83,1.34,2.45.69,6.3,2.05,9.1a12,12,0,0,0,7.47,6.43,31.86,31.86,0,0,0,9.85.82"></path><path class="cls-7 sEtrrwuc_41" d="M872.43,365.73c-5.62-.54-11.19-.81-16.69-2.66a52.34,52.34,0,0,1,11.18-.27c-3.64-7.35-8.95-13.19-13.39-20.58l17.52.83c.79,0,3.26-1.44,1-3.94-6.14-5.08-14.33-.68-21.38-3.41,4.85-1.36,10.5-2.69,10.8-9.06.15-3.19-1.37-4.85-2.88-6.52-5.39-4.24-13.35-4.62-18.42,1.52-2.54,3.07-3.6,8.61.26,11.18,1.56.88,3.15.95,3.87,2.58-8,.42-15-3.1-23.08-1.09-2.43.68-2.58,3.87-1,4.74,6.3,1.89,12.7,1.4,19.07,1.7l.72,1.63c-5.07,6.14-11.67,10.62-16,16.8,1.52,1.66,3.91,1.78,6.29,1.89.8,0,1.56.87,2.32,1.7-16.68-1.58-33.44-1.57-49.83-3.58"></path><path class="cls-7 sEtrrwuc_42" d="M865.67,364.89l18.92,2.54s2.18-.55.13-.92-6.55-1.29-6.55-1.29-3.14-.81-.79-3.08,15.32-15.23,15.32-15.23.6-1.15-.46-1.13a57.85,57.85,0,0,1-7.19-.65l-5.16-.52c-1.48-.16-8.56-.19-8-3.08.38-2.13,3.78-3,5.57-2.84,5,.41,10.05.65,15.07,1.06.64.05,4.28.75,4.52.06s-1.78-1-2.16-1.15c-3-1.29-4.57-5-4-8.12a10.31,10.31,0,0,1,5.92-7.33,12.18,12.18,0,0,1,6.36-.58c3.09.32,6.69.43,8.74,3.14a10.52,10.52,0,0,1,1.8,6.54c-.09,2.78-1.4,4.55-3.64,6.11-1.06.73-6.34,1.6-6.34,1.6s-1,.47,0,.75,17.34,1.52,17.43,1.53c1.69.13,4.66,1.07,4.34,3.33-.1.73-.2,1.87-1.45,2.1s-16.55-.52-16.55-.52-1.83-.51-1,.65c3.1,4.21,5.93,8.64,8.87,13,.86,1.26,1.73,2.52,2.58,3.79.11.18,1.9,2.83,1.22,2.93-.48.06-9.92.08-9.92.08s-1.45.67-.32.83,17.43,2.17,17.43,2.17"></path><path class="cls-7 sEtrrwuc_43" d="M918.83,369.7l19.51,2.49s2.18-.56.13-.92-6.54-1.3-6.54-1.3-3.14-.8-.8-3.08,15.32-15.22,15.32-15.22.61-1.15-.46-1.13a57.85,57.85,0,0,1-7.19-.65l-5.16-.53c-1.48-.15-8.55-.18-8-3.08.38-2.12,3.78-3,5.57-2.84,5,.42,10.05.65,15.07,1.06.64.06,4.28.76,4.52.07s-1.78-1-2.16-1.15c-3-1.3-4.56-5-4-8.13a10.32,10.32,0,0,1,5.93-7.33,12.26,12.26,0,0,1,6.36-.57c3.09.31,6.68.42,8.73,3.13a10.61,10.61,0,0,1,1.81,6.55c-.09,2.78-1.41,4.55-3.65,6.1-1.06.73-6.34,1.61-6.34,1.61s-1,.47,0,.74,17.35,1.53,17.43,1.53c1.69.13,4.67,1.08,4.35,3.34-.11.73-.2,1.87-1.46,2.1s-16.55-.53-16.55-.53-1.83-.5-1,.66c3.1,4.21,5.93,8.64,8.87,13,.86,1.26,1.74,2.51,2.58,3.79.11.17,1.9,2.83,1.22,2.92-.48.07-9.92.08-9.92.08s-1.45.68-.32.84,17.16,1.94,17.16,1.94"></path><path class="cls-7 sEtrrwuc_44" d="M974.09,374.45l18.24,2.22s2.17-.56.13-.92-6.55-1.3-6.55-1.3-3.14-.81-.79-3.08,15.32-15.22,15.32-15.22.6-1.16-.46-1.13a59.83,59.83,0,0,1-7.19-.65l-5.16-.53c-1.49-.15-8.56-.19-8-3.08.38-2.12,3.78-3,5.57-2.84,5,.41,10.05.65,15.07,1.06.64,0,4.27.75,4.52.07s-1.79-1-2.16-1.15c-3-1.3-4.57-5-4-8.13a10.31,10.31,0,0,1,5.92-7.33,12.28,12.28,0,0,1,6.36-.58c3.09.32,6.69.43,8.74,3.14a10.6,10.6,0,0,1,1.8,6.55c-.09,2.78-1.4,4.54-3.64,6.1-1.06.73-6.34,1.61-6.34,1.61s-1,.46,0,.74,17.34,1.53,17.43,1.53c1.69.13,4.66,1.08,4.34,3.34-.1.73-.2,1.87-1.45,2.1s-16.55-.53-16.55-.53-1.83-.5-1,.66c3.1,4.21,5.93,8.64,8.87,13,.86,1.26,1.73,2.51,2.58,3.78.11.18,1.9,2.84,1.22,2.93-.48.07-9.92.08-9.92.08s-1.45.68-.32.84,17.43,2.17,17.43,2.17"></path><path class="cls-7 sEtrrwuc_45" d="M1026.57,378.93l19.51,2.5s2.18-.56.13-.93-6.54-1.29-6.54-1.29-3.15-.81-.8-3.08,15.32-15.23,15.32-15.23.61-1.15-.46-1.12a62,62,0,0,1-7.19-.65l-5.16-.53c-1.48-.15-8.55-.19-8-3.08.38-2.12,3.78-3,5.57-2.84,5,.41,10,.65,15.07,1.06.64.05,4.28.75,4.52.06s-1.78-1-2.16-1.15c-3-1.29-4.56-5-4-8.12a10.3,10.3,0,0,1,5.93-7.33,12.16,12.16,0,0,1,6.36-.58c3.09.32,6.68.43,8.73,3.14a10.6,10.6,0,0,1,1.81,6.54c-.09,2.79-1.41,4.55-3.65,6.11-1.06.73-6.34,1.61-6.34,1.61s-1,.46,0,.74,17.34,1.52,17.43,1.53c1.69.13,4.67,1.08,4.35,3.33-.11.73-.2,1.88-1.46,2.1s-16.55-.52-16.55-.52-1.83-.5-1,.65c3.1,4.21,5.93,8.64,8.87,13,.86,1.27,1.73,2.52,2.58,3.79.11.18,1.9,2.84,1.22,2.93-.48.07-9.92.08-9.92.08s-1.45.67-.32.83c6.56.94,13.18,1.3,19.74,2.17,3.86.52,7.72,1,11.57,1.56,7.34,1,14.79,1.76,22.07,3.16l.51.1"></path><path class="cls-8 sEtrrwuc_46" d="M633.4,272.5c-5.24,1-9.45,4.3-13.11,8.48-.73,1-1.48,2.46-2.21,3.51-1.13,2.46-.48,5.32.53,7.84,1.69,3.59,4.49,5.79,7.64,8,18.59,11.46,38.41,16.18,59.62,21.65a23.32,23.32,0,0,0,13.7-1.38"></path><path class="cls-8 sEtrrwuc_47" d="M648.91,341c2.25-5.28,3.68-10.85,5.3-16.34s3.72-11.13,5.3-16.79c2.49-8.94,4-19.48-1.44-27.68a18,18,0,0,0-12.38-8.11"></path><path class="cls-8 sEtrrwuc_48" d="M632.59,274.27A24.19,24.19,0,0,0,616.47,284c-2,2.86-2.87,6.17-1.58,9.51,1.23,3.18,3.81,5.71,6.46,7.75,6.46,5,14.18,8.2,21.78,11,8.28,3.06,16.8,5.35,25.19,8.06,7.89,2.56,16.39,5.54,24.75,3.49a19.06,19.06,0,0,0,2.93-1"></path><path class="cls-8 sEtrrwuc_49" d="M645.35,343.19a135.58,135.58,0,0,0,5-15.28c1.52-5.21,3.36-10.31,4.93-15.5,2.6-8.63,4.83-18.53.88-27.1-2-4.45-4.6-8.22-9.16-10"></path><path class="cls-9 sEtrrwuc_50" d="M635.06,267.25c-8.55,1.78-20,9-16.68,19.38,1.68,4.66,6.23,7.61,10.44,10.2,12.28,7.4,25,10.54,38.45,14.41a98.36,98.36,0,0,1,10.94,3.81c7.06,2.29,14.51,3.18,21.47.39"></path><path class="cls-9 sEtrrwuc_51" d="M649,335.82c2.35-5.49,3.79-11.3,5.5-17s3.81-11.28,5.35-17c2.48-9.27,3.73-20.23-2.76-28.22a17.64,17.64,0,0,0-12.72-6.86"></path><path class="cls-9 sEtrrwuc_52" d="M633.69,271.14c-5.2,2.2-9.37,4.95-12,9.88-2.25,4.92.11,10.31,3.95,13.6,5.93,5.12,12.27,8.11,19.31,11.12,14.1,5.66,27.89,9.54,43.09,13.45A25.15,25.15,0,0,0,702.79,318"></path><path class="cls-9 sEtrrwuc_53" d="M652.14,338.38a77.18,77.18,0,0,0,4.12-12.81c4.28-15.56,13.89-31.34,5.36-47.19a17.78,17.78,0,0,0-16.76-9.53"></path><path class="cls-2 sEtrrwuc_54" d="M166,515.53c67-3,134-4,202-11,2,0,4-2,5-5,3-24,1-48,6-72,0-3,5-4,8-5,17-2,34-3,51-6,6-1,15-1,15,7-1,25-3,51-3,76,3,4,8,5,13,4,1-1,3-2,3-4-2-35,0-69,1-104,0-2-1-6,1-8a18.54,18.54,0,0,1,7-2c33-1,65-3,98-2,1,0,3,2,3,4,0,33-2,65-4,98,0,4-1,8,1,12,4,9,15,8,23,3,2-2,4-4,4-7,2-45,4-91,5-136,1-5,0-9,2-14,11-28,21-56,31-85a2,2,0,0,1,4,0c5,21,13,40,20,61,3,10,6,19,9,29-3,48-5,97-5,145,0,4,3,9,6,12,4,2,9,3,13,2,5-2,9-6,9-10,4-49,3-97,4-145a7.58,7.58,0,0,1,2-4c17-2,34-2,51-3,8,0,16-2,24,1a7.58,7.58,0,0,1,2,4c-2,50-7,99-10,149a11.35,11.35,0,0,0,3,8c6,5,18,5,18-4,1-15,2-30,0-45,0-5,3-8,8-8h24c9-1,24-7,25,4,3,19-1,36,2,55,1,2,2,4,4,5,97,12,191,18,286.11,29.62"></path><style data-made-with="vivus-instant">.sEtrrwuc_0{stroke-dasharray:1291 1293;stroke-dashoffset:1292;animation:sEtrrwuc_draw 2000ms linear 0ms forwards;}.sEtrrwuc_1{stroke-dasharray:1448 1450;stroke-dashoffset:1449;animation:sEtrrwuc_draw 2000ms linear 18ms forwards;}.sEtrrwuc_2{stroke-dasharray:965 967;stroke-dashoffset:966;animation:sEtrrwuc_draw 2000ms linear 37ms forwards;}.sEtrrwuc_3{stroke-dasharray:234 236;stroke-dashoffset:235;animation:sEtrrwuc_draw 2000ms linear 55ms forwards;}.sEtrrwuc_4{stroke-dasharray:84 86;stroke-dashoffset:85;animation:sEtrrwuc_draw 2000ms linear 74ms forwards;}.sEtrrwuc_5{stroke-dasharray:63 65;stroke-dashoffset:64;animation:sEtrrwuc_draw 2000ms linear 92ms forwards;}.sEtrrwuc_6{stroke-dasharray:68 70;stroke-dashoffset:69;animation:sEtrrwuc_draw 2000ms linear 111ms forwards;}.sEtrrwuc_7{stroke-dasharray:202 204;stroke-dashoffset:203;animation:sEtrrwuc_draw 2000ms linear 129ms forwards;}.sEtrrwuc_8{stroke-dasharray:88 90;stroke-dashoffset:89;animation:sEtrrwuc_draw 2000ms linear 148ms forwards;}.sEtrrwuc_9{stroke-dasharray:257 259;stroke-dashoffset:258;animation:sEtrrwuc_draw 2000ms linear 166ms forwards;}.sEtrrwuc_10{stroke-dasharray:64 66;stroke-dashoffset:65;animation:sEtrrwuc_draw 2000ms linear 185ms forwards;}.sEtrrwuc_11{stroke-dasharray:112 114;stroke-dashoffset:113;animation:sEtrrwuc_draw 2000ms linear 203ms forwards;}.sEtrrwuc_12{stroke-dasharray:262 264;stroke-dashoffset:263;animation:sEtrrwuc_draw 2000ms linear 222ms forwards;}.sEtrrwuc_13{stroke-dasharray:65 67;stroke-dashoffset:66;animation:sEtrrwuc_draw 2000ms linear 240ms forwards;}.sEtrrwuc_14{stroke-dasharray:24 26;stroke-dashoffset:25;animation:sEtrrwuc_draw 2000ms linear 259ms forwards;}.sEtrrwuc_15{stroke-dasharray:1482 1484;stroke-dashoffset:1483;animation:sEtrrwuc_draw 2000ms linear 277ms forwards;}.sEtrrwuc_16{stroke-dasharray:8 10;stroke-dashoffset:9;animation:sEtrrwuc_draw 2000ms linear 296ms forwards;}.sEtrrwuc_17{stroke-dasharray:328 330;stroke-dashoffset:329;animation:sEtrrwuc_draw 2000ms linear 314ms forwards;}.sEtrrwuc_18{stroke-dasharray:328 330;stroke-dashoffset:329;animation:sEtrrwuc_draw 2000ms linear 333ms forwards;}.sEtrrwuc_19{stroke-dasharray:328 330;stroke-dashoffset:329;animation:sEtrrwuc_draw 2000ms linear 351ms forwards;}.sEtrrwuc_20{stroke-dasharray:328 330;stroke-dashoffset:329;animation:sEtrrwuc_draw 2000ms linear 370ms forwards;}.sEtrrwuc_21{stroke-dasharray:193 195;stroke-dashoffset:194;animation:sEtrrwuc_draw 2000ms linear 388ms forwards;}.sEtrrwuc_22{stroke-dasharray:703 705;stroke-dashoffset:704;animation:sEtrrwuc_draw 2000ms linear 407ms forwards;}.sEtrrwuc_23{stroke-dasharray:33 35;stroke-dashoffset:34;animation:sEtrrwuc_draw 2000ms linear 425ms forwards;}.sEtrrwuc_24{stroke-dasharray:16 18;stroke-dashoffset:17;animation:sEtrrwuc_draw 2000ms linear 444ms forwards;}.sEtrrwuc_25{stroke-dasharray:23 25;stroke-dashoffset:24;animation:sEtrrwuc_draw 2000ms linear 462ms forwards;}.sEtrrwuc_26{stroke-dasharray:367 369;stroke-dashoffset:368;animation:sEtrrwuc_draw 2000ms linear 481ms forwards;}.sEtrrwuc_27{stroke-dasharray:70 72;stroke-dashoffset:71;animation:sEtrrwuc_draw 2000ms linear 500ms forwards;}.sEtrrwuc_28{stroke-dasharray:68 70;stroke-dashoffset:69;animation:sEtrrwuc_draw 2000ms linear 518ms forwards;}.sEtrrwuc_29{stroke-dasharray:121 123;stroke-dashoffset:122;animation:sEtrrwuc_draw 2000ms linear 537ms forwards;}.sEtrrwuc_30{stroke-dasharray:302 304;stroke-dashoffset:303;animation:sEtrrwuc_draw 2000ms linear 555ms forwards;}.sEtrrwuc_31{stroke-dasharray:34 36;stroke-dashoffset:35;animation:sEtrrwuc_draw 2000ms linear 574ms forwards;}.sEtrrwuc_32{stroke-dasharray:34 36;stroke-dashoffset:35;animation:sEtrrwuc_draw 2000ms linear 592ms forwards;}.sEtrrwuc_33{stroke-dasharray:15 17;stroke-dashoffset:16;animation:sEtrrwuc_draw 2000ms linear 611ms forwards;}.sEtrrwuc_34{stroke-dasharray:15 17;stroke-dashoffset:16;animation:sEtrrwuc_draw 2000ms linear 629ms forwards;}.sEtrrwuc_35{stroke-dasharray:84 86;stroke-dashoffset:85;animation:sEtrrwuc_draw 2000ms linear 648ms forwards;}.sEtrrwuc_36{stroke-dasharray:88 90;stroke-dashoffset:89;animation:sEtrrwuc_draw 2000ms linear 666ms forwards;}.sEtrrwuc_37{stroke-dasharray:96 98;stroke-dashoffset:97;animation:sEtrrwuc_draw 2000ms linear 685ms forwards;}.sEtrrwuc_38{stroke-dasharray:76 78;stroke-dashoffset:77;animation:sEtrrwuc_draw 2000ms linear 703ms forwards;}.sEtrrwuc_39{stroke-dasharray:1530 1532;stroke-dashoffset:1531;animation:sEtrrwuc_draw 2000ms linear 722ms forwards;}.sEtrrwuc_40{stroke-dasharray:55 57;stroke-dashoffset:56;animation:sEtrrwuc_draw 2000ms linear 740ms forwards;}.sEtrrwuc_41{stroke-dasharray:292 294;stroke-dashoffset:293;animation:sEtrrwuc_draw 2000ms linear 759ms forwards;}.sEtrrwuc_42{stroke-dasharray:262 264;stroke-dashoffset:263;animation:sEtrrwuc_draw 2000ms linear 777ms forwards;}.sEtrrwuc_43{stroke-dasharray:262 264;stroke-dashoffset:263;animation:sEtrrwuc_draw 2000ms linear 796ms forwards;}.sEtrrwuc_44{stroke-dasharray:261 263;stroke-dashoffset:262;animation:sEtrrwuc_draw 2000ms linear 814ms forwards;}.sEtrrwuc_45{stroke-dasharray:299 301;stroke-dashoffset:300;animation:sEtrrwuc_draw 2000ms linear 833ms forwards;}.sEtrrwuc_46{stroke-dasharray:118 120;stroke-dashoffset:119;animation:sEtrrwuc_draw 2000ms linear 851ms forwards;}.sEtrrwuc_47{stroke-dasharray:79 81;stroke-dashoffset:80;animation:sEtrrwuc_draw 2000ms linear 870ms forwards;}.sEtrrwuc_48{stroke-dasharray:120 122;stroke-dashoffset:121;animation:sEtrrwuc_draw 2000ms linear 888ms forwards;}.sEtrrwuc_49{stroke-dasharray:75 77;stroke-dashoffset:76;animation:sEtrrwuc_draw 2000ms linear 907ms forwards;}.sEtrrwuc_50{stroke-dasharray:119 121;stroke-dashoffset:120;animation:sEtrrwuc_draw 2000ms linear 925ms forwards;}.sEtrrwuc_51{stroke-dasharray:81 83;stroke-dashoffset:82;animation:sEtrrwuc_draw 2000ms linear 944ms forwards;}.sEtrrwuc_52{stroke-dasharray:114 116;stroke-dashoffset:115;animation:sEtrrwuc_draw 2000ms linear 962ms forwards;}.sEtrrwuc_53{stroke-dasharray:83 85;stroke-dashoffset:84;animation:sEtrrwuc_draw 2000ms linear 981ms forwards;}.sEtrrwuc_54{stroke-dasharray:2226 2228;stroke-dashoffset:2227;animation:sEtrrwuc_draw 2000ms linear 1000ms forwards;}@keyframes sEtrrwuc_draw{100%{stroke-dashoffset:0;}}@keyframes sEtrrwuc_fade{0%{stroke-opacity:1;}94.44444444444444%{stroke-opacity:1;}100%{stroke-opacity:0;}}</style></svg>